<svg xmlns="http://www.w3.org/2000/svg" viewBox="0 0 32 32" width="32" height="32">
  <defs>
    <style>
      .leaf { fill: #22c55e; stroke: #16a34a; stroke-width: 0.5; }
    </style>
  </defs>
  <path class="leaf" d="M16 2C12 2 8 4 6 8c-2 4-1 9 2 12c3 3 7 4 10 2c3-2 4-6 2-10c-2-4-6-6-10-6z"/>
  <path class="leaf" d="M16 8c-2 0-4 1-5 3c-1 2 0 4 2 5c2 1 4 0 5-2c1-2 0-4-2-5z"/>
  <path class="leaf" d="M12 14c-1 0-2 1-2 2c0 1 1 2 2 2s2-1 2-2c0-1-1-2-2-2z"/>
  <path class="leaf" d="M20 12c-1 0-2 1-2 2c0 1 1 2 2 2s2-1 2-2c0-1-1-2-2-2z"/>
  <path class="leaf" d="M14 18c-1 0-2 1-2 2c0 1 1 2 2 2s2-1 2-2c0-1-1-2-2-2z"/>
</svg>